<svg xmlns="http://www.w3.org/2000/svg" viewBox="0 0 640 280" width="640" height="280" fill="currentColor"><path transform="translate(166.7 126) scale(0.04688)" d="M985 -272L443 -272L357 0L9 0L507 -1493L920 -1493L1418 0L1069 0L985 -272ZM529 -549L897 -549L714 -1143L529 -549Z"/><path transform="translate(237.39 126) scale(0.04688)" d="M9 -1493L1247 -1493L1247 -1202L802 -1202L802 0L455 0L455 -1202L9 -1202L9 -1493Z"/><path transform="translate(300.15 126) scale(0.04688)" d="M985 -272L443 -272L357 0L9 0L507 -1493L920 -1493L1418 0L1069 0L985 -272ZM529 -549L897 -549L714 -1143L529 -549Z"/><path transform="translate(370.83 126) scale(0.04688)" d="M662 -831Q770 -831 818 -876Q865 -921 865 -1024Q865 -1126 818 -1170Q770 -1214 662 -1214L516 -1214L516 -831L662 -831ZM516 -565L516 0L169 0L169 -1493L698 -1493Q964 -1493 1088 -1394Q1211 -1295 1211 -1081Q1211 -933 1147 -838Q1083 -743 953 -698Q1024 -680 1081 -616Q1137 -553 1194 -424L1382 0L1013 0L850 -371Q800 -483 749 -524Q698 -565 614 -565L516 -565Z"/><path transform="translate(441.19 126) scale(0.04688)" d="M169 -1493L516 -1493L516 0L169 0L169 -1493Z"/><path transform="translate(194.05 239.2) scale(0.04688)" d="M531 -283L1122 -283L1122 0L146 0L146 -283L636 -764Q702 -830 734 -893Q765 -956 765 -1024Q765 -1129 702 -1193Q638 -1257 533 -1257Q452 -1257 356 -1218Q259 -1180 149 -1104L149 -1432Q266 -1475 381 -1497Q495 -1520 605 -1520Q846 -1520 980 -1402Q1113 -1284 1113 -1073Q1113 -951 1057 -845Q1000 -740 818 -563L531 -283Z"/><path transform="translate(257.99 239.2) scale(0.04688)" d="M667 -737Q576 -737 531 -671Q485 -606 485 -475Q485 -344 531 -278Q576 -213 667 -213Q759 -213 805 -278Q850 -344 850 -475Q850 -606 805 -671Q759 -737 667 -737ZM1095 -1454L1095 -1178Q1010 -1223 935 -1244Q859 -1266 787 -1266Q632 -1266 546 -1170Q459 -1075 445 -887Q504 -936 574 -960Q643 -985 724 -985Q931 -985 1058 -851Q1184 -717 1184 -500Q1184 -260 1043 -115Q901 29 663 29Q401 29 258 -167Q114 -364 114 -725Q114 -1095 282 -1306Q450 -1518 742 -1518Q835 -1518 923 -1502Q1010 -1486 1095 -1454Z"/><path transform="translate(321.92 239.2) scale(0.04688)" d="M848 -748Q848 -1028 801 -1142Q753 -1257 642 -1257Q530 -1257 483 -1142Q435 -1028 435 -748Q435 -465 483 -349Q530 -233 642 -233Q752 -233 800 -349Q848 -465 848 -748ZM1194 -745Q1194 -374 1050 -172Q906 29 642 29Q376 29 232 -172Q88 -374 88 -745Q88 -1117 232 -1318Q376 -1520 642 -1520Q906 -1520 1050 -1318Q1194 -1117 1194 -745Z"/><path transform="translate(385.85 239.2) scale(0.04688)" d="M848 -748Q848 -1028 801 -1142Q753 -1257 642 -1257Q530 -1257 483 -1142Q435 -1028 435 -748Q435 -465 483 -349Q530 -233 642 -233Q752 -233 800 -349Q848 -465 848 -748ZM1194 -745Q1194 -374 1050 -172Q906 29 642 29Q376 29 232 -172Q88 -374 88 -745Q88 -1117 232 -1318Q376 -1520 642 -1520Q906 -1520 1050 -1318Q1194 -1117 1194 -745Z"/></svg>
