<svg xmlns="http://www.w3.org/2000/svg" viewBox="0 0 640 280" width="640" height="280" fill="#fff"><path transform="translate(169.27 178.88) scale(0.05273)" d="M169 -1493L516 -1493L516 -291L1124 -291L1124 0L169 0L169 -1493Z"/><path transform="translate(235.5 178.88) scale(0.05273)" d="M-18 -1493L361 -1493L667 -961L973 -1493L1353 -1493L841 -629L841 0L494 0L494 -629L-18 -1493Z"/><path transform="translate(310.16 178.88) scale(0.05273)" d="M169 -1493L556 -1493L1045 -469L1045 -1493L1373 -1493L1373 0L986 0L498 -1024L498 0L169 0L169 -1493Z"/><path transform="translate(395.8 178.88) scale(0.05273)" d="M918 -762L1384 0L1023 0L709 -510L398 0L35 0L501 -762L53 -1493L415 -1493L709 -1012L1003 -1493L1366 -1493L918 -762Z"/></svg>
